<svg preserveAspectRatio="none" width="100%" height="100%" overflow="visible" style="display: block;" viewBox="0 0 36.7828 36.7827" fill="none" xmlns="http://www.w3.org/2000/svg">
<path id="Vector" fill-rule="evenodd" clip-rule="evenodd" d="M18.3913 0C21.8168 0.0390885 24.9114 0.880976 27.6751 2.52566C30.4057 4.13748 32.6772 6.42289 34.2724 9.16334C35.907 11.9436 36.7438 15.0569 36.7828 18.5033C36.6857 23.2186 35.1985 27.246 32.321 30.5853C29.4435 33.9248 25.7582 35.9907 21.9432 36.7827V23.5624H25.55L26.3657 18.3671H20.9042V14.9643C20.8738 14.2589 21.0969 13.5659 21.5331 13.0106C21.9698 12.4538 22.739 12.1612 23.8405 12.1327H27.1385V7.58174C27.0912 7.5665 26.6422 7.50629 25.7915 7.40109C24.8267 7.2882 23.8564 7.22789 22.8851 7.22045C20.6865 7.23059 18.9478 7.85076 17.6689 9.08096C16.3899 10.3108 15.7365 12.09 15.7088 14.4188V18.3671H11.5526V23.5624H15.7088V36.7827C11.0245 35.9908 7.3392 33.9249 4.46173 30.5855C1.58427 27.2461 0.0970781 23.2186 0 18.5033C0.0388411 15.0568 0.875633 11.9435 2.51038 9.16334C4.10552 6.42286 6.37706 4.13743 9.10775 2.52559C11.8714 0.881249 14.9659 0.0394349 18.3913 0Z" fill="#0A0A0A"/>
</svg>
